<?xml version="1.0" encoding="UTF-8"?>
<!DOCTYPE svg PUBLIC "-//W3C//DTD SVG 1.1//EN" "http://www.w3.org/Graphics/SVG/1.1/DTD/svg11.dtd">
<!-- Creator: CorelDRAW -->
<svg xmlns="http://www.w3.org/2000/svg" xml:space="preserve" width="10.7878in" height="2.88617in" style="shape-rendering:geometricPrecision; text-rendering:geometricPrecision; image-rendering:optimizeQuality; fill-rule:evenodd; clip-rule:evenodd"
viewBox="0 0 10.8027 2.89015"
 xmlns:xlink="http://www.w3.org/1999/xlink">
 <defs>
  <style type="text/css">
   <![CDATA[
    .fil1 {fill:#88C124}
    .fil2 {fill:#F02000}
    .fil0 {fill:white}
    .fil3 {fill:white;fill-rule:nonzero}
   ]]>
  </style>
 </defs>
 <g id="Layer_x0020_1">
  <metadata id="CorelCorpID_0Corel-Layer"/>
  <g id="_100828024">
   <path id="_81551968" class="fil0" d="M0.187152 1.53322l0.283387 0.726702 0.255742 -0.726659 0.197599 -0.00030751 -0.29038 0.7603c-0.0897575,0.215281 -0.245823,0.221853 -0.333329,0.00370195l-0.30017 -0.763808 0.187152 7.09639e-005z"/>
   <polygon id="_81551920" class="fil0" points="1.06754,1.53312 1.23177,1.53327 1.23206,2.44664 1.06751,2.44677 "/>
   <path id="_81551872" class="fil0" d="M1.47374 1.53366l0.165035 -5.91366e-005c0.001644,0.0287995 -0.00016164,0.0617071 0.000926474,0.0904948 0.0950562,-0.104183 0.195005,-0.148137 0.290069,-0.108602 0,0.051851 0,0.103702 0,0.155553 -0.155198,-0.0311216 -0.249884,0.0585058 -0.29629,0.237031l0.0074039 0.537027 -0.166663 0 -0.000480978 -0.911445z"/>
   <path id="_81551824" class="fil0" d="M2.04643 1.31097l0.176381 -1.97122e-005 -1.18273e-005 0.222314 0.352115 -4.73093e-005 3.94244e-006 0.169292 -0.351674 0.000642618 -0.000887049 0.486399c-0.00253105,0.0650463 0.0308023,0.0996137 0.0999961,0.103702l0.229994 8.27913e-005 0.000283856 0.153365 -0.275119 -0.000141928c-0.148508,-0.000390302 -0.231303,-0.136353 -0.2293,-0.263304l-0.00178198 -0.872285z"/>
   <path id="_81551776" class="fil0" d="M2.66323 1.53315l0.164561 7.09639e-005 2.75971e-005 0.583375c0.000591366,0.250467 0.430992,0.277228 0.429967,0.00130101l-0.000413956 -0.584766 0.175935 -2.75971e-005 0.000165583 0.535857c0.000571654,0.5107 -0.735868,0.55176 -0.769497,0.0295722l-0.000745121 -0.565381z"/>
   <path id="_81551728" class="fil0" d="M4.32603 2.18585l0.00370589 0.203702c-0.260867,0.10656 -0.471295,0.0858703 -0.614804,-0.103702 -0.164356,-0.233065 -0.120012,-0.482054 0.0712833,-0.666131 0.221478,-0.187672 0.699196,-0.111689 0.78796,0.236507l0 0.592584 -0.18518 0 0 -0.551843c-0.0553795,-0.265772 -0.38382,-0.239976 -0.493842,-0.148843 -0.143761,0.0724305 -0.158218,0.41208 0.004589,0.494654 0.166276,0.0966253 0.302945,0.0832328 0.426288,-0.0569288z"/>
   <polygon id="_81551680" class="fil0" points="4.75321,1.11596 4.94169,1.11596 4.94167,2.4468 4.75321,2.44682 "/>
   <circle id="_81551632" class="fil0" cx="1.14826" cy="1.32248" r="0.0977857"/>
  </g>
  <path class="fil1" d="M4.60377 0l0.124944 0c0.0147211,0 0.0267613,0.0120402 0.0267613,0.0267613l0 0.12492c0,0.014725 -0.0120402,0.0267652 -0.0267613,0.0267652l-0.124944 0c-0.0147211,0 -0.0267613,-0.0120402 -0.0267613,-0.0267652l0 -0.12492c0,-0.0147211 0.0120402,-0.0267613 0.0267613,-0.0267613z"/>
  <path class="fil1" d="M3.9077 0.445417l0.346572 0c0.0408595,0 0.0742795,0.0334201 0.0742795,0.0742795l0 0.346572c0,0.0408595 -0.0334201,0.0742795 -0.0742795,0.0742795l-0.346572 0c-0.0408595,0 -0.0742795,-0.0334201 -0.0742795,-0.0742795l0 -0.346572c0,-0.0408595 0.0334201,-0.0742795 0.0742795,-0.0742795zm0.0140942 0.0424561l0.321636 0c0.0235088,0 0.0427361,0.0192312 0.0427361,0.0427361l0 0.32164c0,0.0235048 -0.0192273,0.0427321 -0.0427361,0.0427321l-0.321636 0c-0.0235088,0 -0.0427361,-0.0192273 -0.0427361,-0.0427321l0 -0.32164c0,-0.0235048 0.0192273,-0.0427361 0.0427361,-0.0427361z"/>
  <path class="fil1" d="M4.26364 0.230893l0.235182 0c0.021573,0 0.0391918,0.0176385 0.0391918,0.0391918l0 0.235202c0,0.0215533 -0.0176188,0.0391918 -0.0391918,0.0391918l-0.235182 0c-0.021573,0 -0.0391918,-0.0176385 -0.0391918,-0.0391918l0 -0.235202c0,-0.0215533 0.0176188,-0.0391918 0.0391918,-0.0391918z"/>
  <path class="fil1" d="M3.57358 0.716641l0.40615 0c0.0478652,0 0.0870215,0.0391563 0.0870215,0.0870215l0 0.40615c0,0.0478652 -0.0391563,0.0870176 -0.0870215,0.0870176l-0.40615 0c-0.0478652,0 -0.0870176,-0.0391524 -0.0870176,-0.0870176l0 -0.40615c0,-0.0478652 0.0391524,-0.0870215 0.0870176,-0.0870215z"/>
  <g id="_100827736">
   <path id="_81552256" class="fil2" d="M6.91215 2.18585l0.00370589 0.203702c-0.260867,0.10656 -0.471295,0.0858703 -0.614804,-0.103702 -0.164356,-0.233065 -0.120012,-0.482054 0.0712833,-0.666131 0.221478,-0.187672 0.699196,-0.111689 0.78796,0.236507l0 0.592584 -0.18518 0 0 -0.551843c-0.0553834,-0.265772 -0.38382,-0.239976 -0.493842,-0.148843 -0.143761,0.0724305 -0.158218,0.41208 0.00458506,0.494654 0.16628,0.0966253 0.302949,0.0832328 0.426292,-0.0569288z"/>
   <path id="_81552208" class="fil2" d="M8.42492 2.17605l0.00370195 0.203702c-0.260863,0.10656 -0.471295,0.0858703 -0.614804,-0.103702 -0.164356,-0.233065 -0.120012,-0.482054 0.0712872,-0.666135 0.221474,-0.187668 0.699196,-0.111689 0.78796,0.236511l0 0.592584 -0.185184 0 0 -0.551843c-0.0553795,-0.265772 -0.383816,-0.239976 -0.493842,-0.148847 -0.143757,0.0724345 -0.158218,0.41208 0.004589,0.494654 0.16628,0.0966292 0.302945,0.0832328 0.426292,-0.0569249z"/>
   <path id="_81552160" class="fil2" d="M5.84336 2.243l-0.00281885 0.193901c-0.257607,0.0885985 -0.479448,0.0581116 -0.622961,-0.131461 -0.164356,-0.233065 -0.112269,-0.526966 0.0757658,-0.668583 0.221478,-0.187668 0.699606,-0.128835 0.78837,0.219361l0.00154544 0.635888c-0.0591051,0.398549 -0.437883,0.465803 -0.816578,0.342105l0.0528051 -0.14861c0.309024,0.0795703 0.530408,0.0508693 0.578581,-0.191863l-0.00153361 -0.533905c-0.04397,-0.319661 -0.38382,-0.30285 -0.493842,-0.211717 -0.143761,0.0724305 -0.140698,0.422287 -0.000709639,0.503225 0.143458,0.083564 0.252825,0.095888 0.441376,-0.0083422z"/>
   <path id="_81552112" class="fil2" d="M9.53828 1.53315l0.164561 7.09639e-005c-0.000583481,0.202724 -0.00116302,0.405452 -0.00173862,0.608181 0.0478652,0.225973 0.38589,0.228137 0.437027,-0.00370195l-0.0111098 -0.611102 0.188886 0.00740785c-0.00370589,0.220982 -0.00740785,0.441967 -0.0111098,0.662953 -0.0378119,0.139468 -0.144183,0.222878 -0.266115,0.254055l-0.00201853 0.399125 -0.186166 0.00303174 -0.00193968 -0.394445c-0.142846,-0.0238045 -0.270787,-0.114248 -0.303008,-0.265472l-0.00726986 -0.660103z"/>
   <path id="_81552064" class="fil2" d="M9.47466 1.53348c-0.156515,-0.00048492 -0.297796,0.0370984 -0.384692,0.210668 -0.0676523,-0.115588 -0.18121,-0.192332 -0.361877,-0.2123l-0.00162823 0.161676c0.417221,0.04466 0.33657,0.596748 0,0.581376l1.18273e-005 0.173113c0.171149,-0.0191524 0.299929,-0.080686 0.366765,-0.20414 0.0948196,0.151709 0.225768,0.210518 0.381435,0.205772l-0.00163217 -0.16984c-0.34861,0.00900848 -0.422192,-0.542176 -0.00240095,-0.588161l0.00401735 -0.158163z"/>
   <polygon id="_81552016" class="fil2" points="7.34034,1.11575 7.52883,1.11575 7.52881,2.44659 7.34035,2.44662 "/>
  </g>
  <polygon class="fil3" points="10.4158,1.48707 10.4158,1.27527 10.3367,1.27527 10.3367,1.24692 10.527,1.24692 10.527,1.27527 10.4475,1.27527 10.4475,1.48707 "/>
  <path id="1" class="fil3" d="M10.5586 1.48707l0 -0.240154 0.0478652 0 0.0568066 0.170037c0.00525527,0.015825 0.00911492,0.0276759 0.0114646,0.0355608 0.00274,-0.00872068 0.00698995,-0.0215809 0.012805,-0.0385255l0.0574768 -0.167073 0.0427755 0 0 0.240154 -0.0306406 0 0 -0.201013 -0.0697812 0.201013 -0.0286852 0 -0.0694461 -0.204423 0 0.204423 -0.0306406 0z"/>
 </g>
</svg>
