<?xml version="1.0" encoding="UTF-8"?>
<!DOCTYPE svg PUBLIC "-//W3C//DTD SVG 1.1//EN" "http://www.w3.org/Graphics/SVG/1.1/DTD/svg11.dtd">
<!-- Creator: CorelDRAW 2020 (64-Bit) -->
<svg xmlns="http://www.w3.org/2000/svg" xml:space="preserve" width="61.1209mm" height="18.6887mm" version="1.1" style="shape-rendering:geometricPrecision; text-rendering:geometricPrecision; image-rendering:optimizeQuality; fill-rule:evenodd; clip-rule:evenodd"
viewBox="0 0 2690.67 822.71"
 xmlns:xlink="http://www.w3.org/1999/xlink"
 xmlns:xodm="http://www.corel.com/coreldraw/odm/2003">
 <defs>
  <style type="text/css">
   <![CDATA[
    .fil5 {fill:none}
    .fil0 {fill:black}
    .fil2 {fill:#1A1A1A}
    .fil3 {fill:#88C124}
    .fil1 {fill:#F02000}
    .fil4 {fill:#1A1A1A;fill-rule:nonzero}
   ]]>
  </style>
 </defs>
 <g id="Layer_x0020_1">
  <metadata id="CorelCorpID_0Corel-Layer"/>
  <g id="_2324122681200">
   <path class="fil0" d="M105.78 419.16l68.01 174.41 61.38 -174.39 47.42 -0.07 -69.69 182.47c-21.54,51.66 -58.99,53.24 -80,0.89l-72.04 -183.31 44.92 0.02z"/>
   <polygon class="fil0" points="317.06,419.14 356.48,419.17 356.55,638.38 317.06,638.41 "/>
   <path class="fil0" d="M414.56 419.27l39.61 -0.01c0.39,6.91 -0.04,14.81 0.22,21.72 22.81,-25 46.8,-35.55 69.62,-26.06 0,12.44 0,24.89 0,37.33 -37.25,-7.47 -59.97,14.04 -71.11,56.89l1.78 128.88 -40 0 -0.11 -218.74z"/>
   <path class="fil0" d="M552 365.82l42.33 -0 0 53.35 84.5 -0.01 0 40.63 -84.4 0.15 -0.21 116.73c-0.61,15.61 7.39,23.91 24,24.89l55.2 0.02 0.07 36.81 -66.03 -0.03c-35.64,-0.1 -55.51,-32.73 -55.03,-63.19l-0.43 -209.34z"/>
   <path class="fil0" d="M700.03 419.15l39.49 0.01 0 140.01c0.15,60.11 103.44,66.53 103.19,0.31l-0.1 -140.34 42.23 -0 0.04 128.6c0.14,122.57 -176.6,132.42 -184.68,7.1l-0.18 -135.68z"/>
   <path class="fil0" d="M1099.08 575.79l0.89 48.89c-62.61,25.57 -113.11,20.61 -147.55,-24.89 -39.45,-55.93 -28.8,-115.69 17.11,-159.87 53.15,-45.04 167.8,-26.81 189.11,56.76l0 142.22 -44.44 0 0 -132.44c-13.29,-63.78 -92.11,-57.59 -118.52,-35.72 -34.5,17.38 -37.97,98.9 1.1,118.71 39.91,23.19 72.7,19.98 102.31,-13.66z"/>
   <polygon class="fil0" points="1201.6,319.02 1246.84,319.02 1246.83,638.42 1201.6,638.42 "/>
   <circle class="fil0" cx="336.44" cy="368.59" r="23.47"/>
  </g>
  <g id="_2324122676544">
   <path class="fil1" d="M1719.74 571.31l0.89 48.89c-62.61,25.57 -113.11,20.61 -147.55,-24.89 -39.44,-55.93 -28.8,-115.69 17.11,-159.87 53.15,-45.04 167.8,-26.81 189.11,56.76l0 142.21 -44.44 0 0 -132.44c-13.29,-63.78 -92.11,-57.59 -118.52,-35.72 -34.5,17.38 -37.97,98.9 1.1,118.71 39.91,23.19 72.7,19.98 102.31,-13.66z"/>
   <path class="fil1" d="M2082.79 568.95l0.89 48.89c-62.61,25.57 -113.11,20.61 -147.55,-24.89 -39.44,-55.93 -28.8,-115.69 17.11,-159.87 53.15,-45.04 167.8,-26.81 189.11,56.76l0 142.22 -44.44 0 0 -132.44c-13.29,-63.78 -92.11,-57.59 -118.52,-35.72 -34.5,17.38 -37.97,98.9 1.1,118.71 39.91,23.19 72.71,19.98 102.31,-13.66z"/>
   <path class="fil1" d="M1463.23 585.03l-0.67 46.54c-61.82,21.26 -115.06,13.94 -149.51,-31.55 -39.44,-55.93 -26.94,-126.47 18.19,-160.46 53.15,-45.04 167.9,-30.92 189.2,52.65l0.37 152.61c-14.18,95.65 -105.09,111.79 -195.97,82.11l12.67 -35.67c74.16,19.1 127.29,12.21 138.85,-46.05l-0.37 -128.13c-10.55,-76.72 -92.11,-72.68 -118.52,-50.81 -34.5,17.38 -33.76,101.35 -0.17,120.77 34.43,20.06 60.68,23.01 105.93,-2z"/>
   <path class="fil1" d="M2349.99 414.67l39.5 0.02c-0.14,48.65 -0.28,97.31 -0.42,145.96 11.49,54.23 92.61,54.75 104.88,-0.89l-2.67 -146.66 45.33 1.77c-0.89,53.04 -1.78,106.07 -2.67,159.1 -9.07,33.47 -34.6,53.49 -63.86,60.97l-0.48 95.79 -44.68 0.73 -0.46 -94.66c-34.28,-5.71 -64.99,-27.42 -72.72,-63.71l-1.75 -158.42z"/>
   <path class="fil1" d="M2334.72 414.74c-37.56,-0.11 -71.47,8.9 -92.32,50.56 -16.24,-27.74 -43.49,-46.16 -86.85,-50.95l-0.39 38.8c100.13,10.72 80.78,143.22 0,139.53l0 41.54c41.07,-4.6 71.98,-19.37 88.02,-48.99 22.76,36.41 54.19,50.52 91.54,49.38l-0.39 -40.76c-83.66,2.16 -101.32,-130.12 -0.58,-141.16l0.96 -37.96z"/>
   <polygon class="fil1" points="1822.5,314.49 1867.74,314.49 1867.73,633.88 1822.5,633.89 "/>
  </g>
  <g id="_2324122676448">
   <path class="fil2" d="M105.78 414.68l68.01 174.41 61.38 -174.39 47.42 -0.07 -69.69 182.47c-21.54,51.67 -58.99,53.24 -80,0.89l-72.04 -183.31 44.92 0.01z"/>
   <polygon class="fil2" points="317.06,414.66 356.48,414.69 356.55,633.9 317.06,633.93 "/>
   <path class="fil2" d="M414.56 414.78l39.61 -0.01c0.39,6.91 -0.04,14.81 0.22,21.72 22.81,-25 46.8,-35.55 69.62,-26.07 0,12.45 0,24.89 0,37.33 -37.25,-7.47 -59.97,14.04 -71.11,56.89l1.78 128.88 -40 0 -0.11 -218.74z"/>
   <path class="fil2" d="M552 361.34l42.33 -0 0 53.35 84.5 -0.01 0 40.63 -84.4 0.15 -0.21 116.73c-0.61,15.61 7.39,23.9 24,24.89l55.2 0.02 0.07 36.81 -66.03 -0.04c-35.64,-0.09 -55.51,-32.73 -55.03,-63.19l-0.43 -209.34z"/>
   <path class="fil2" d="M700.03 414.67l39.49 0.02 0 140c0.15,60.11 103.44,66.53 103.19,0.31l-0.1 -140.34 42.23 -0.01 0.04 128.6c0.14,122.57 -176.6,132.42 -184.68,7.1l-0.18 -135.69z"/>
   <path class="fil2" d="M1099.08 571.31l0.89 48.89c-62.61,25.57 -113.11,20.61 -147.55,-24.89 -39.45,-55.93 -28.8,-115.69 17.11,-159.87 53.15,-45.04 167.8,-26.81 189.11,56.76l0 142.21 -44.44 0 0 -132.44c-13.29,-63.78 -92.11,-57.59 -118.52,-35.72 -34.5,17.38 -37.97,98.9 1.1,118.71 39.91,23.19 72.7,19.98 102.31,-13.66z"/>
   <polygon class="fil2" points="1201.6,314.54 1246.84,314.54 1246.83,633.93 1201.6,633.94 "/>
   <circle class="fil2" cx="336.44" cy="364.1" r="23.47"/>
  </g>
  <g id="_2324122675920">
   <rect class="fil3" x="1159.32" y="46.72" width="42.83" height="42.83" rx="6.42" ry="6.42"/>
   <path class="fil3" d="M998.69 153.61l83.18 0c9.8,0 17.82,8.02 17.82,17.83l0 83.18c0,9.8 -8.02,17.82 -17.82,17.82l-83.18 0c-9.8,0 -17.82,-8.02 -17.82,-17.82l0 -83.18c0,-9.81 8.02,-17.83 17.82,-17.83zm3.38 10.19l77.19 0c5.64,0 10.26,4.61 10.26,10.25l0 77.19c0,5.64 -4.62,10.26 -10.26,10.26l-77.19 0c-5.64,0 -10.25,-4.61 -10.25,-10.26l0 -77.19c0,-5.64 4.61,-10.25 10.25,-10.25z"/>
   <rect class="fil3" x="1074.7" y="102.13" width="75.26" height="75.26" rx="9.41" ry="9.41"/>
   <rect class="fil3" x="897.62" y="218.71" width="139.24" height="139.24" rx="20.89" ry="20.89"/>
  </g>
  <path class="fil4" d="M2560.56 403.6l0 -50.85 -18.98 0 0 -6.77 45.65 0 0 6.77 -19.03 0 0 50.85 -7.64 0zm34.36 0l0 -57.62 11.45 0 13.59 40.79c1.27,3.82 2.2,6.65 2.78,8.51 0.63,-2.08 1.68,-5.15 3.06,-9.2l13.88 -40.09 10.18 0 0 57.62 -7.29 0 0 -48.19 -16.83 48.19 -6.89 0 -16.6 -49.12 0 49.12 -7.35 0z"/>
  <rect class="fil5" x="-0.02" y="-0.03" width="2690.66" height="822.72"/>
 </g>
</svg>
